<svg width="28" height="28" xmlns="http://www.w3.org/2000/svg">



  <path id="svg_1" fill="#38ad4a" d="m22.717,28l-17.384,0c-2.956,0 -5.333,-2.377 -5.333,-5.283l0,-17.434c0,-2.906 2.377,-5.283 5.283,-5.283l17.434,0c2.906,0 5.283,2.377 5.283,5.283l0,17.434c0,2.906 -2.377,5.283 -5.283,5.283z"/>

   <path id="svg_2" d="m17.9529,6.44834l-7.90715,0c-2.18349,0 -3.95357,1.69026 -3.95357,3.77529l0,7.55061c0,2.08503 1.77008,3.77531 3.95357,3.77531l7.90715,0c2.18354,0 3.95361,-1.69028 3.95361,-3.77531l0,-7.55061c0,-2.08502 -1.77006,-3.77529 -3.95361,-3.77529z" stroke="white" stroke-width="2" stroke-linecap="round" stroke-linejoin="round" fill="#38ad4a"/>
   <path id="svg_3" d="m17.1623,13.52318c0.09755,0.62844 -0.01483,1.27022 -0.32123,1.83404c-0.3064,0.56389 -0.7912,1.02114 -1.38543,1.30675c-0.59423,0.28561 -1.26768,0.38504 -1.92451,0.28416c-0.65675,-0.10095 -1.26353,-0.39707 -1.73397,-0.84626c-0.47044,-0.44919 -0.78054,-1.02861 -0.88621,-1.65585c-0.10567,-0.62718 -0.00161,-1.27022 0.29748,-1.83767c0.29909,-0.56746 0.77799,-1.03039 1.36846,-1.32294c0.59054,-0.29261 1.26265,-0.39991 1.92068,-0.30675c0.67125,0.09507 1.29271,0.39376 1.77254,0.85194c0.47983,0.45818 0.79261,1.0516 0.89218,1.69259z" stroke="white" stroke-width="2" stroke-linecap="round" stroke-linejoin="round" fill="#38ad4a"/>
   <path id="svg_4" d="m19.19898,9.46851c0,0.22506 -0.19403,0.42472 -0.45528,0.42472c-0.26119,0 -0.45521,-0.19966 -0.45521,-0.42472c0,-0.22506 0.19403,-0.42472 0.45521,-0.42472c0.26125,0 0.45528,0.19966 0.45528,0.42472z" stroke="white" fill="#38ad4a"/>

</svg>