<svg width="28" height="28" viewBox="0 0 28 28" fill="none" xmlns="http://www.w3.org/2000/svg">
    <path fill="green" d="M22.717 28H5.333C2.377 28 0 25.623 0 22.717V5.283C0 2.377 2.377 0 5.283 0h17.434C25.623 0 28 2.377 28 5.283v17.434C28 25.623 25.623 28 22.717 28z" />
    <path d="M22.3929 4.57153H10.6072C7.35268 4.57153 4.71436 7.12991 4.71436 10.2858V21.7144C4.71436 24.8703 7.35268 27.4287 10.6072 27.4287H22.3929C25.6475 27.4287 28.2858 24.8703 28.2858 21.7144V10.2858C28.2858 7.12991 25.6475 4.57153 22.3929 4.57153Z" stroke="#787885" stroke-width="2" stroke-linecap="round" stroke-linejoin="round"/>
<path d="M21.2145 15.28C21.3599 16.2312 21.1924 17.2026 20.7357 18.056C20.279 18.9095 19.5564 19.6016 18.6707 20.0339C17.785 20.4662 16.7812 20.6167 15.8022 20.464C14.8233 20.3112 13.9189 19.863 13.2177 19.1831C12.5165 18.5032 12.0543 17.6262 11.8968 16.6768C11.7393 15.7275 11.8944 14.7542 12.3402 13.8953C12.786 13.0364 13.4998 12.3357 14.3799 11.8929C15.2601 11.45 16.2619 11.2876 17.2427 11.4286C18.2432 11.5725 19.1695 12.0246 19.8847 12.7181C20.5999 13.4116 21.0661 14.3098 21.2145 15.28Z" stroke="#787885" stroke-width="2" stroke-linecap="round" stroke-linejoin="round"/>
<path d="M24.2502 9.14286C24.2502 9.48351 23.961 9.78571 23.5716 9.78571C23.1823 9.78571 22.8931 9.48351 22.8931 9.14286C22.8931 8.80221 23.1823 8.5 23.5716 8.5C23.961 8.5 24.2502 8.80221 24.2502 9.14286Z" stroke="#787885"/>
</svg>
